HIERARCHY
ROOT SpineBase
{
  OFFSET 0.000000 0.000000 0.000000
  CHANNELS 6 Xposition Yposition Zposition Zrotation Xrotation Yrotation
  JOINT SpineMid
  {
    OFFSET 0.000000 29.502669 0.000000
    CHANNELS 3 Zrotation Xrotation Yrotation
    JOINT SpineShoulder
    {
      OFFSET -0.308290 22.068552 -0.590969
      CHANNELS 3 Zrotation Xrotation Yrotation
      JOINT Neck
      {
        OFFSET -0.146105 7.324721 -0.484023
        CHANNELS 3 Zrotation Xrotation Yrotation
        JOINT Head
        {
          OFFSET -1.656282 8.528373 5.626933
          CHANNELS 3 Zrotation Xrotation Yrotation
          End Site
          {
            OFFSET 0 0 0
          }
        }
      }
      JOINT ShoulderLeft
      {
        OFFSET -3.806207 -2.257204 13.526280
        CHANNELS 3 Zrotation Xrotation Yrotation
        JOINT ElbowLeft
        {
          OFFSET -6.170315 -23.588631 -15.112122
          CHANNELS 3 Zrotation Xrotation Yrotation
          JOINT WristLeft
          {
            OFFSET -9.034254 -26.227373 -1.812769
            CHANNELS 3 Zrotation Xrotation Yrotation
            JOINT HandLeft
            {
              OFFSET 1.708389 -5.783883 -8.079672
              CHANNELS 3 Zrotation Xrotation Yrotation
              JOINT HandTipLeft
              {
                OFFSET -1.902551 -3.231496 -2.972033
                CHANNELS 3 Zrotation Xrotation Yrotation
                End Site
                {
                  OFFSET 0 0 0
                }
              }
              JOINT ThumbLeft
              {
                OFFSET 2.125554 -2.396843 0.451022
                CHANNELS 3 Zrotation Xrotation Yrotation
                End Site
                {
                  OFFSET 0 0 0
                }
              }
            }
          }
        }
      }
      JOINT ShoulderRight
      {
        OFFSET -2.396202 -3.705860 -11.728922
        CHANNELS 3 Zrotation Xrotation Yrotation
        JOINT ElbowRight
        {
          OFFSET -7.101324 -22.932545 -5.248352
          CHANNELS 3 Zrotation Xrotation Yrotation
          JOINT WristRight
          {
            OFFSET -6.698176 -23.904244 2.178866
            CHANNELS 3 Zrotation Xrotation Yrotation
            JOINT HandRight
            {
              OFFSET -1.632211 -7.143574 1.187961
              CHANNELS 3 Zrotation Xrotation Yrotation
              JOINT HandTipRight
              {
                OFFSET -3.449241 -6.990571 0.264473
                CHANNELS 3 Zrotation Xrotation Yrotation
                End Site
                {
                  OFFSET 0 0 0
                }
              }
              JOINT ThumbRight
              {
                OFFSET 1.521073 -2.072177 -0.222748
                CHANNELS 3 Zrotation Xrotation Yrotation
                End Site
                {
                  OFFSET 0 0 0
                }
              }
            }
          }
        }
      }
    }
  }
  JOINT HipLeft
  {
    OFFSET -1.558728 0.099604 -0.811364
    CHANNELS 3 Zrotation Xrotation Yrotation
    JOINT KneeLeft
    {
      OFFSET 1.887649 -43.173726 0.455379
      CHANNELS 3 Zrotation Xrotation Yrotation
      JOINT AnkleLeft
      {
        OFFSET 13.027219 -30.776890 4.526312
        CHANNELS 3 Zrotation Xrotation Yrotation
        JOINT FootLeft
        {
          OFFSET -3.519134 -7.258406 0.799813
          CHANNELS 3 Zrotation Xrotation Yrotation
          End Site
          {
            OFFSET 0 0 0
          }
        }
      }
    }
  }
  JOINT HipRight
  {
    OFFSET -0.537605 1.848970 -5.380838
    CHANNELS 3 Zrotation Xrotation Yrotation
    JOINT KneeRight
    {
      OFFSET 12.727452 -42.635886 7.576567
      CHANNELS 3 Zrotation Xrotation Yrotation
      JOINT AnkleRight
      {
        OFFSET -18.164292 -33.871197 -8.511323
        CHANNELS 3 Zrotation Xrotation Yrotation
        JOINT FootRight
        {
          OFFSET -5.465478 -6.576485 0.104111
          CHANNELS 3 Zrotation Xrotation Yrotation
          End Site
          {
            OFFSET 0 0 0
          }
        }
      }
    }
  }
}
MOTION
Frames: 12
Frame Time: 0.033333
107.015456 81.811626 332.584956 -0.000000 0.000000 77.403283 0.000000 -0.000000 -77.403283 -0.000000 0.000000 0.000000 -0.000000 0.000000 0.000000 0.000000 0.000000 0.000000 -0.000000 0.000000 0.000000 -0.000000 0.000000 0.000000 -0.000000 0.000000 0.000000 -0.000000 0.000000 0.000000 0.000000 0.000000 0.000000 0.000000 0.000000 0.000000 -0.000000 0.000000 0.000000 -0.000000 0.000000 0.000000 -0.000000 0.000000 0.000000 -0.000000 0.000000 0.000000 0.000000 0.000000 0.000000 0.000000 0.000000 0.000000 0.000000 -0.000000 -77.403283 -0.000000 0.000000 0.000000 -0.000000 0.000000 0.000000 0.000000 0.000000 0.000000 0.000000 -0.000000 -77.403283 -0.000000 0.000000 0.000000 -0.000000 0.000000 0.000000 0.000000 0.000000 0.000000
106.889250 81.672626 332.573890 -0.167083 0.034149 79.544626 -0.003261 -0.170506 -79.544581 -0.000000 0.000000 0.000000 -0.000000 0.000000 0.000000 0.000000 0.000000 0.000000 0.694777 -1.511793 -0.040882 -0.173955 2.182769 -0.225200 0.380567 -1.123810 -1.114030 0.219099 -5.396650 4.130672 0.000000 0.000000 0.000000 0.000000 0.000000 0.000000 -0.000000 0.000000 0.000000 -0.000000 0.000000 0.000000 -1.466370 -0.692650 -0.094099 2.617691 1.461196 -0.280948 0.000000 0.000000 0.000000 0.000000 0.000000 0.000000 0.399596 1.531622 -79.535417 4.297938 -1.549553 0.087378 -3.611762 3.750824 -1.489205 0.000000 0.000000 0.000000 -0.003261 -0.170506 -79.544581 -0.000000 0.000000 0.000000 -1.672548 -0.519517 0.392896 0.000000 0.000000 0.000000
106.777227 81.560325 332.571970 -0.304102 0.063501 80.742698 -0.013753 -0.310357 -80.742567 -0.000000 0.000000 0.000000 -0.000000 0.000000 0.000000 0.000000 0.000000 0.000000 1.265430 -2.718918 -0.070633 -0.319501 3.946014 -0.414136 0.689140 -2.032499 -1.994107 0.810616 -10.081129 7.871313 0.000000 0.000000 0.000000 0.000000 0.000000 0.000000 -0.000000 0.000000 0.000000 -0.000000 0.000000 0.000000 -2.653571 -1.383277 -0.156186 4.865378 2.848215 -0.631556 0.000000 0.000000 0.000000 0.000000 0.000000 0.000000 0.807575 2.746016 -80.733500 7.802216 -2.864132 0.242406 -6.350818 6.756133 -2.555615 0.000000 0.000000 0.000000 -0.013753 -0.310357 -80.742567 -0.000000 0.000000 0.000000 -2.890331 -0.921918 0.682755 0.000000 0.000000 0.000000
106.679387 81.474725 332.579197 -0.411553 0.088150 81.025007 -0.022866 -0.420266 -81.024774 -0.000000 0.000000 0.000000 -0.000000 0.000000 0.000000 0.000000 0.000000 0.000000 1.710431 -3.617108 -0.097743 -0.435652 5.286396 -0.559784 0.928050 -2.716990 -2.650009 1.510265 -13.821843 11.058333 0.000000 0.000000 0.000000 0.000000 0.000000 0.000000 -0.000000 0.000000 0.000000 -0.000000 0.000000 0.000000 -3.595207 -2.081507 -0.185862 6.764206 4.155015 -1.031386 0.000000 0.000000 0.000000 0.000000 0.000000 0.000000 1.141297 3.643718 -81.019951 10.518824 -3.943963 0.413472 -8.295488 9.046923 -3.279966 0.000000 0.000000 0.000000 -0.022866 -0.420266 -81.024774 -0.000000 0.000000 0.000000 -3.659154 -1.201913 0.879062 0.000000 0.000000 0.000000
106.595730 81.415824 332.595572 -0.489815 0.108171 80.417123 -0.025118 -0.500987 -80.416770 -0.000000 0.000000 0.000000 0.709143 0.355871 -0.399679 0.000000 0.000000 0.000000 2.028756 -4.204204 -0.128786 -0.522132 6.202601 -0.656720 1.096153 -3.168214 -3.085158 2.094126 -16.573611 13.552503 0.000000 0.000000 0.000000 0.000000 0.000000 0.000000 -0.000000 0.000000 0.000000 -0.461338 -0.688248 0.147786 -3.858777 -2.099586 -0.283509 8.327955 5.379313 -1.462473 0.000000 0.000000 0.000000 0.000000 0.000000 0.000000 1.351194 4.229128 -80.414574 12.455183 -4.795224 0.559634 -9.496211 10.657364 -3.716309 0.000000 0.000000 0.000000 -0.025118 -0.500987 -80.416770 -0.000000 0.000000 0.000000 -3.983508 -1.356496 0.988348 0.000000 0.000000 0.000000
106.526257 81.383624 332.621093 -0.539155 0.123620 78.940658 -0.017898 -0.552856 -78.940163 -0.000000 0.000000 0.000000 0.814429 0.318740 -0.476190 0.000000 0.000000 0.000000 2.219833 -4.479169 -0.168308 -0.578864 6.694267 -0.701165 1.188152 -3.376085 -3.295324 2.418473 -18.415876 15.265225 0.000000 0.000000 0.000000 0.000000 0.000000 0.000000 -0.000000 0.000000 0.000000 -0.643906 -0.782048 0.155711 -4.196926 -2.744532 -0.242103 9.565249 6.522501 -1.909320 0.000000 0.000000 0.000000 0.000000 0.000000 0.000000 1.419997 4.505531 -78.935097 13.618239 -5.426220 0.650336 -9.978293 11.614326 -3.895853 0.000000 0.000000 0.000000 -0.017898 -0.552856 -78.940163 -0.000000 0.000000 0.000000 -3.865108 -1.384163 1.013815 0.000000 0.000000 0.000000
106.441324 81.349568 332.654126 -0.572441 0.119437 75.763052 0.025018 -0.584233 -75.762328 -0.000000 0.000000 0.000000 0.856174 0.242278 -0.518185 0.000000 0.000000 0.000000 2.338964 -4.696534 -0.179199 -0.604198 7.073495 -0.753403 1.299457 -3.514454 -3.492214 3.739561 -20.638086 16.660156 0.000000 0.000000 0.000000 0.000000 0.000000 0.000000 -0.000000 0.000000 0.000000 -0.968391 -0.906933 0.157713 -4.063496 -3.683112 -0.080565 9.914979 7.704261 -2.357131 0.000000 0.000000 0.000000 0.000000 0.000000 0.000000 1.372314 4.667382 -75.746942 14.737886 -6.200548 0.722189 -9.169676 12.735456 -4.084422 0.000000 0.000000 0.000000 0.025018 -0.584233 -75.762328 -0.000000 0.000000 0.000000 -3.094774 -1.244665 0.930732 0.000000 0.000000 0.000000
106.359003 81.391539 332.691190 -0.602738 0.128186 71.941253 0.064980 -0.612782 -71.940231 -0.000000 0.000000 0.000000 0.922347 0.090287 -0.590525 0.000000 0.000000 0.000000 2.223097 -4.266999 -0.231608 -0.581498 6.598845 -0.682795 1.192588 -3.280864 -3.196632 2.649167 -20.741819 17.138839 0.000000 0.000000 0.000000 0.000000 0.000000 0.000000 -0.990361 -0.182570 0.280967 -0.446486 -0.577231 -0.206597 -3.663961 -4.757705 0.141584 11.446078 9.586178 -3.387336 0.000000 0.000000 0.000000 0.000000 0.000000 0.000000 1.056410 3.688165 -71.907157 13.624865 -5.859253 0.621282 -9.698931 12.830167 -4.117488 0.000000 0.000000 0.000000 0.064980 -0.612782 -71.940231 -0.000000 0.000000 0.000000 1.763290 -2.595264 2.252777 0.000000 0.000000 0.000000
106.312796 81.406731 332.732703 -0.601376 0.152473 68.515152 0.078387 -0.615431 -68.513931 -0.000000 0.000000 0.000000 1.024378 -0.070399 -0.688011 0.000000 0.000000 0.000000 1.861252 -3.229048 -0.301911 -0.500920 5.288227 -0.503975 0.871482 -2.411361 -2.339615 1.843549 -19.991137 15.570764 0.000000 0.000000 0.000000 0.000000 0.000000 0.000000 -1.343453 -0.173824 0.358089 -0.437628 -0.591233 -0.315776 -3.329774 -5.131723 0.235333 12.725899 10.486625 -3.998326 0.000000 0.000000 0.000000 0.000000 0.000000 0.000000 1.084654 3.406030 -68.468597 13.530359 -6.408039 0.562360 -3.510572 9.840568 -2.393735 0.000000 0.000000 0.000000 0.078387 -0.615431 -68.513931 -0.000000 0.000000 0.000000 1.903426 -1.999318 1.748604 0.000000 0.000000 0.000000
106.327786 81.540832 332.788968 -0.525023 0.169685 65.989963 0.058634 -0.548638 -65.988905 -0.000000 0.000000 0.000000 1.074010 -0.179605 -0.741246 0.000000 0.000000 0.000000 1.656345 -2.283231 -0.438128 -0.485711 4.196844 -0.308334 0.743070 -1.600622 -1.791047 1.401436 -19.611907 14.375328 0.000000 0.000000 0.000000 0.000000 0.000000 0.000000 -1.724438 -0.128648 0.430688 -0.198680 -0.689406 -0.389412 -3.227004 -5.588701 0.320530 12.434180 9.494213 -3.301526 0.000000 0.000000 0.000000 0.000000 0.000000 0.000000 1.335975 4.144533 -65.934102 14.620046 -8.152965 0.495011 -9.140694 11.257792 -2.040607 0.000000 0.000000 0.000000 -0.816685 -0.644215 -66.295896 0.615948 1.684876 -0.253310 -1.900834 -0.673555 0.340093 0.000000 0.000000 0.000000
106.443408 81.626085 332.847156 -0.364805 0.172188 63.718418 0.007143 -0.403337 -63.717845 -0.000000 0.000000 0.000000 1.158127 -0.227054 -0.805406 0.000000 0.000000 0.000000 1.461926 -1.280019 -0.591668 -0.478511 3.043215 -0.093798 0.658625 -0.214585 -1.141571 -0.721224 -18.200905 12.978354 0.000000 0.000000 0.000000 0.000000 0.000000 0.000000 -2.095945 -0.100784 0.506328 0.255804 -0.736161 -0.453725 -3.688876 -5.828461 0.278496 12.396046 9.597531 -3.227604 0.000000 0.000000 0.000000 0.000000 0.000000 0.000000 1.275999 3.662944 -63.657904 12.140611 -7.828302 0.092757 -11.242788 10.059781 -1.380983 0.000000 0.000000 0.000000 -1.846687 -0.739342 -64.368341 1.605117 3.134095 -0.407385 -8.419336 2.087050 -1.884621 0.000000 0.000000 0.000000
106.480320 81.775756 332.885593 -0.283339 0.225868 63.883111 -0.078079 -0.353837 -63.882793 -0.000000 0.000000 0.000000 1.113385 -0.272804 -0.784693 0.000000 0.000000 0.000000 1.289841 -0.327045 -0.740670 -0.472707 1.958483 0.108327 0.376251 0.586567 -0.402149 -1.726578 -17.014755 11.572627 0.000000 0.000000 0.000000 0.000000 0.000000 0.000000 -2.380466 -0.014681 0.545615 0.897435 -0.892719 -0.440422 -4.821539 -5.943369 0.109083 13.594888 9.324363 -3.011458 0.000000 0.000000 0.000000 0.000000 0.000000 0.000000 1.222142 4.538442 -63.825253 12.069204 -7.972818 0.058788 -13.963108 7.996027 -0.578527 0.000000 0.000000 0.000000 -3.089809 -1.215966 -64.939247 2.482569 4.893167 -0.597968 -15.940690 5.336472 -4.050284 0.000000 0.000000 0.000000
